<?xml version="1.0" encoding="UTF-8" standalone="no"?>
<!-- Created with Inkscape (http://www.inkscape.org/) -->

<svg
   xmlns:osb="http://www.openswatchbook.org/uri/2009/osb"
   xmlns:dc="http://purl.org/dc/elements/1.1/"
   xmlns:cc="http://creativecommons.org/ns#"
   xmlns:rdf="http://www.w3.org/1999/02/22-rdf-syntax-ns#"
   xmlns:svg="http://www.w3.org/2000/svg"
   xmlns="http://www.w3.org/2000/svg"
   xmlns:xlink="http://www.w3.org/1999/xlink"
   xmlns:sodipodi="http://sodipodi.sourceforge.net/DTD/sodipodi-0.dtd"
   xmlns:inkscape="http://www.inkscape.org/namespaces/inkscape"
   id="svg3336"
   version="1.1"
   inkscape:version="0.91 r13725"
   width="180"
   height="180"
   viewBox="0 0 180 180"
   sodipodi:docname="ic_launcher.svg"
   inkscape:export-filename="D:\Jimmy\Desktop\image3344.png"
   inkscape:export-xdpi="256"
   inkscape:export-ydpi="256">
  <metadata
     id="metadata3342">
    <rdf:RDF>
      <cc:Work
         rdf:about="">
        <dc:format>image/svg+xml</dc:format>
        <dc:type
           rdf:resource="http://purl.org/dc/dcmitype/StillImage" />
        <dc:title></dc:title>
      </cc:Work>
    </rdf:RDF>
  </metadata>
  <defs
     id="defs3340">
    <linearGradient
       id="linearGradient4714"
       osb:paint="solid">
      <stop
         style="stop-color:#ffffff;stop-opacity:1;"
         offset="0"
         id="stop4716" />
    </linearGradient>
    <linearGradient
       id="linearGradient4682"
       osb:paint="solid">
      <stop
         style="stop-color:#000000;stop-opacity:1;"
         offset="0"
         id="stop4684" />
    </linearGradient>
    <linearGradient
       inkscape:collect="always"
       id="linearGradient4588">
      <stop
         style="stop-color:#f9f9f9;stop-opacity:1"
         offset="0"
         id="stop4590" />
      <stop
         style="stop-color:#cccccc;stop-opacity:1"
         offset="1"
         id="stop4592" />
    </linearGradient>
    <inkscape:perspective
       sodipodi:type="inkscape:persp3d"
       inkscape:vp_x="-114.62264 : 202.07547 : 1"
       inkscape:vp_y="0 : 1000 : 0"
       inkscape:vp_z="180 : 90 : 1"
       inkscape:persp3d-origin="90 : 60 : 1"
       id="perspective4168" />
    <clipPath
       clipPathUnits="userSpaceOnUse"
       id="clipPath4397">
      <rect
         style="opacity:1;fill:#000000;fill-opacity:1;stroke-width:0;stroke-miterlimit:4;stroke-dasharray:none"
         id="rect4399"
         width="5"
         height="140"
         x="20"
         y="20" />
    </clipPath>
    <clipPath
       clipPathUnits="userSpaceOnUse"
       id="clipPath4401">
      <rect
         style="opacity:1;fill:#000000;fill-opacity:1;stroke-width:0;stroke-miterlimit:4;stroke-dasharray:none"
         id="rect4403"
         width="10"
         height="140"
         x="150"
         y="20" />
    </clipPath>
    <linearGradient
       inkscape:collect="always"
       xlink:href="#linearGradient4588"
       id="linearGradient4594"
       x1="93.51091"
       y1="13.065707"
       x2="94.665367"
       y2="167.0701"
       gradientUnits="userSpaceOnUse" />
    <linearGradient
       inkscape:collect="always"
       xlink:href="#linearGradient4682"
       id="linearGradient4686"
       x1="-320.57251"
       y1="-179.24597"
       x2="279.4583"
       y2="-179.24597"
       gradientUnits="userSpaceOnUse" />
    <linearGradient
       inkscape:collect="always"
       xlink:href="#linearGradient4682"
       id="linearGradient4688"
       gradientUnits="userSpaceOnUse"
       x1="-320.57251"
       y1="-179.24597"
       x2="279.4583"
       y2="-179.24597" />
    <linearGradient
       inkscape:collect="always"
       xlink:href="#linearGradient4682"
       id="linearGradient4690"
       gradientUnits="userSpaceOnUse"
       x1="-320.57251"
       y1="-179.24597"
       x2="279.4583"
       y2="-179.24597" />
    <linearGradient
       inkscape:collect="always"
       xlink:href="#linearGradient4682"
       id="linearGradient4692"
       gradientUnits="userSpaceOnUse"
       x1="-320.57251"
       y1="-179.24597"
       x2="279.4583"
       y2="-179.24597" />
    <linearGradient
       inkscape:collect="always"
       xlink:href="#linearGradient4682"
       id="linearGradient4694"
       gradientUnits="userSpaceOnUse"
       x1="-320.57251"
       y1="-179.24597"
       x2="279.4583"
       y2="-179.24597" />
    <linearGradient
       inkscape:collect="always"
       xlink:href="#linearGradient4682"
       id="linearGradient4696"
       gradientUnits="userSpaceOnUse"
       x1="-320.57251"
       y1="-179.24597"
       x2="279.4583"
       y2="-179.24597" />
    <linearGradient
       inkscape:collect="always"
       xlink:href="#linearGradient4682"
       id="linearGradient4698"
       gradientUnits="userSpaceOnUse"
       x1="-320.57251"
       y1="-179.24597"
       x2="279.4583"
       y2="-179.24597" />
    <linearGradient
       inkscape:collect="always"
       xlink:href="#linearGradient4682"
       id="linearGradient4700"
       gradientUnits="userSpaceOnUse"
       x1="-320.57251"
       y1="-179.24597"
       x2="279.4583"
       y2="-179.24597" />
    <linearGradient
       inkscape:collect="always"
       xlink:href="#linearGradient4682"
       id="linearGradient4702"
       gradientUnits="userSpaceOnUse"
       x1="-320.57251"
       y1="-179.24597"
       x2="279.4583"
       y2="-179.24597" />
    <linearGradient
       inkscape:collect="always"
       xlink:href="#linearGradient4682"
       id="linearGradient4704"
       gradientUnits="userSpaceOnUse"
       x1="-320.57251"
       y1="-179.24597"
       x2="279.4583"
       y2="-179.24597" />
    <linearGradient
       inkscape:collect="always"
       xlink:href="#linearGradient4714"
       id="linearGradient4718"
       x1="138.44485"
       y1="83.660767"
       x2="193.64505"
       y2="83.660767"
       gradientUnits="userSpaceOnUse" />
  </defs>
  <sodipodi:namedview
     pagecolor="#ffffff"
     bordercolor="#666666"
     borderopacity="1"
     objecttolerance="10"
     gridtolerance="10"
     guidetolerance="10"
     inkscape:pageopacity="0"
     inkscape:pageshadow="2"
     inkscape:window-width="756"
     inkscape:window-height="405"
     id="namedview3338"
     showgrid="false"
     inkscape:zoom="3.5094727"
     inkscape:cx="101.90199"
     inkscape:cy="98.663495"
     inkscape:window-x="663"
     inkscape:window-y="155"
     inkscape:window-maximized="0"
     inkscape:current-layer="svg3336" />
  <rect
     style="opacity:1;fill:url(#linearGradient4594);fill-opacity:1;stroke-width:0;stroke-miterlimit:4;stroke-dasharray:none"
     id="rect3346"
     width="160"
     height="160"
     x="9.8172169"
     y="9.5518875"
     ry="15" />
  <rect
     style="opacity:1;fill:#000000;fill-opacity:1;stroke-width:0;stroke-miterlimit:4;stroke-dasharray:none"
     id="rect4363"
     width="140"
     height="140"
     x="20"
     y="20"
     ry="5"
     clip-path="url(#clipPath4397)" />
  <rect
     style="opacity:1;fill:#000000;fill-opacity:1;stroke-width:0;stroke-miterlimit:4;stroke-dasharray:none"
     id="rect4194"
     width="10"
     height="140"
     x="40"
     y="20" />
  <rect
     style="opacity:1;fill:#000000;fill-opacity:1;stroke-width:0;stroke-miterlimit:4;stroke-dasharray:none"
     id="rect4194-5"
     width="5"
     height="140"
     x="60"
     y="20" />
  <rect
     style="opacity:1;fill:#000000;fill-opacity:1;stroke-width:0;stroke-miterlimit:4;stroke-dasharray:none"
     id="rect4194-9"
     width="5"
     height="140"
     x="30"
     y="20" />
  <rect
     style="opacity:1;fill:#000000;fill-opacity:1;stroke-width:0;stroke-miterlimit:4;stroke-dasharray:none"
     id="rect4194-91"
     width="10"
     height="140"
     x="70"
     y="20" />
  <rect
     style="opacity:1;fill:#000000;fill-opacity:1;stroke-width:0;stroke-miterlimit:4;stroke-dasharray:none"
     id="rect4194-5-3"
     width="5"
     height="140"
     x="90"
     y="20" />
  <rect
     style="opacity:1;fill:#000000;fill-opacity:1;stroke-width:0;stroke-miterlimit:4;stroke-dasharray:none"
     id="rect4194-5-3-5-4"
     width="10"
     height="140"
     x="110"
     y="20" />
  <rect
     style="opacity:1;fill:#000000;fill-opacity:1;stroke-width:0;stroke-miterlimit:4;stroke-dasharray:none"
     id="rect4194-5-3-5-4-8"
     width="5"
     height="140"
     x="125"
     y="20" />
  <rect
     style="opacity:1;fill:#000000;fill-opacity:1;stroke-width:0;stroke-miterlimit:4;stroke-dasharray:none"
     id="rect4194-5-3-5-4-8-3"
     width="5"
     height="140"
     x="135"
     y="20" />
  <rect
     style="opacity:1;fill:#000000;fill-opacity:1;stroke-width:0;stroke-miterlimit:4;stroke-dasharray:none"
     id="rect4363-5"
     width="140"
     height="140"
     x="20"
     y="20"
     ry="5"
     clip-path="url(#clipPath4401)" />
  <path
     style="fill:none;fill-rule:evenodd;stroke:#ff0000;stroke-width:1px;stroke-linecap:butt;stroke-linejoin:miter;stroke-opacity:1"
     d="M 41.316741,81.108921 C 24.466817,78.329319 14.52011,57.038401 22.060677,64.423668 c 8.985749,8.800683 20.614772,15.268875 20.614772,15.268875 z"
     id="path4457"
     inkscape:connector-curvature="0"
     sodipodi:nodetypes="cscc" />
  <g
     id="g4429"
     transform="matrix(0.93969262,0.34202014,-0.34202014,0.93969262,36.07524,-10.290524)">
    <path
       id="rect4407"
       d="m 39.496094,53.072266 c -2.77,0 -5,2.23 -5,5 l 0,58.730464 c 0,2.77 2.23,5 5,5 l 126.144526,0 c 2.77001,0 5,-2.23 5,-5 l 0,-58.730464 c 0,-2.77 -2.22999,-5 -5,-5 l -126.144526,0 z M 43,81 a 4,4 0 0 1 4,4 4,4 0 0 1 -4,4 4,4 0 0 1 -4,-4 4,4 0 0 1 4,-4 z"
       style="opacity:1;fill:#bd9c00;fill-opacity:1;stroke-width:0;stroke-miterlimit:4;stroke-dasharray:none"
       inkscape:connector-curvature="0" />
    <path
       id="rect4405"
       d="m 39.382812,53 c -2.77,0 -5,2.23 -5,5 l 0,57.22266 c 0,2.77 2.23,5 5,5 l 124.677738,0 c 2.77,0 5,-2.23 5,-5 l 0,-57.22266 c 0,-2.77 -2.23,-5 -5,-5 L 39.382812,53 Z M 44,82 a 4,4 0 0 1 4,4 4,4 0 0 1 -4,4 4,4 0 0 1 -4,-4 4,4 0 0 1 4,-4 z"
       mask="none"
       style="opacity:1;fill:#face00;fill-opacity:1;stroke-width:0;stroke-miterlimit:4;stroke-dasharray:none"
       inkscape:connector-curvature="0" />
  </g>
  <rect
     style="opacity:1;fill:#000000;fill-opacity:1;stroke:#ff0000;stroke-width:0;stroke-miterlimit:4;stroke-dasharray:none;stroke-opacity:1"
     id="rect4459"
     width="1.9984232"
     height="1.8133883"
     x="20.000004"
     y="61.748608" />
  <rect
     style="opacity:1;fill:#000000;fill-opacity:1;stroke:#ff0000;stroke-width:0;stroke-miterlimit:4;stroke-dasharray:none;stroke-opacity:1"
     id="rect4459-9"
     width="1.9999905"
     height="3.4414883"
     x="23.000006"
     y="64.4142" />
  <path
     style="fill:none;fill-rule:evenodd;stroke:#bf0000;stroke-width:1px;stroke-linecap:round;stroke-linejoin:miter;stroke-opacity:1"
     d="m 39.979648,77.98297 c 0,0 -0.330398,-1.742321 1.062207,-1.49161 2.825272,0.508634 4.384425,6.350639 4.384425,6.350639"
     id="path4526"
     inkscape:connector-curvature="0"
     sodipodi:nodetypes="csc" />
  <path
     style="fill:none;fill-rule:evenodd;stroke:#bf0000;stroke-width:1px;stroke-linecap:round;stroke-linejoin:miter;stroke-opacity:1"
     d="m 38.982409,80.839064 c 0,0 -1.069462,1.106321 0.0075,2.024147 0.971542,0.827998 5.729464,1.323721 5.72038,1.164743"
     id="path4526-8"
     inkscape:connector-curvature="0"
     sodipodi:nodetypes="csc" />
  <rect
     style="opacity:1;fill:#000000;fill-opacity:1;stroke:#ff0000;stroke-width:0;stroke-miterlimit:4;stroke-dasharray:none;stroke-opacity:1"
     id="rect4459-3"
     width="1.9984205"
     height="2.9678411"
     x="21.454954"
     y="63.099369" />
  <rect
     style="opacity:1;fill:#000000;fill-opacity:1;stroke:#ff0000;stroke-width:0;stroke-miterlimit:4;stroke-dasharray:none;stroke-opacity:1"
     id="rect4459-3-0"
     width="1.9984245"
     height="1.0629933"
     x="20.20546"
     y="62.93375" />
  <rect
     style="opacity:1;fill:#000000;fill-opacity:1;stroke:#ff0000;stroke-width:0;stroke-miterlimit:4;stroke-dasharray:none;stroke-opacity:1"
     id="rect4459-3-0-6"
     width="1.9984245"
     height="1.0629933"
     x="20.714991"
     y="63.530167" />
  <g
     id="g4662"
     transform="matrix(0.12207868,0.09077225,-0.0916232,0.12905892,85.615988,118.09573)"
     style="fill:url(#linearGradient4686);fill-opacity:1">
    <path
       style="fill:url(#linearGradient4688);fill-opacity:1"
       d="m -266.1309,-56.28475 c -29.16058,-7.35534 -52.24106,-40.28111 -54.30917,-77.4755 -1.89283,-34.04191 16.60246,-60.7402 49.16422,-70.96947 8.87066,-2.78671 24.42952,-3.72914 34.24181,-2.07408 23.83196,4.01978 43.98446,25.06948 36.97606,38.62224 -2.36133,4.5663 -5.25488,6.6148 -10.11778,7.16292 -6.82087,0.76881 -8.85786,-0.16356 -17.14515,-7.84763 -10.03884,-9.30814 -16.59198,-12.41022 -25.95494,-12.28637 -17.50027,0.23149 -30.89148,11.44267 -34.51056,28.89239 -3.62611,17.48359 4.45682,46.13459 16.81928,59.6182 7.14133,7.78898 13.08608,10.33523 24.19128,10.36161 13.26366,0.0315 23.87021,-5.03924 30.04726,-14.36488 3.45204,-5.21163 4.60825,-9.01066 5.94065,-19.51959 0.53005,-4.18063 1.62979,-8.88916 2.44386,-10.4634 3.62303,-7.00616 16.11288,-8.36188 21.82945,-2.36949 3.73702,3.91733 4.73878,7.32527 4.73878,16.12115 0,14.32002 -5.40344,26.75201 -16.38925,37.7076 -8.20216,8.17961 -19.00681,14.07691 -32.11075,17.52643 -10.43217,2.74619 -27.75074,3.40207 -35.85505,1.35787 z m 139.46707,-36.568 c -13.89764,-1.77639 -28.44278,-11.79917 -36.12373,-24.89218 -5.07987,-8.65919 -9.05893,-21.60406 -9.68734,-31.51532 -1.67651,-26.44178 15.77608,-48.38529 43.69905,-54.94374 25.1858,-5.91555 48.81752,4.97337 59.89405,27.59772 9.79413,20.005 10.44315,37.94896 1.9839,54.85002 -9.92405,19.82766 -35.18709,32.04516 -59.76593,28.9035 z m 23.52235,-25.97255 c 5.20187,-2.51818 9.84909,-8.32049 11.48452,-14.33907 1.68225,-6.19087 0.52244,-18.97134 -2.42649,-26.73856 -3.4144,-8.99324 -7.17707,-14.40537 -12.628,-18.1638 -3.7682,-2.59818 -5.74329,-3.21458 -11.32265,-3.53366 -5.74463,-0.32852 -7.56263,0.007 -12.12135,2.23743 -12.05255,5.89677 -15.85852,20.25099 -10.15539,38.30109 4.0091,12.6886 10.36579,20.82367 18.77387,24.02614 4.44565,1.69326 12.8999,0.8708 18.39549,-1.78957 z m 77.98493,0.0409 c -3.37877,-1.02374 -7.26838,-4.43663 -9.12793,-8.00917 -2.40477,-4.62 -24.49137,-83.32998 -24.49137,-87.27982 0,-7.48932 5.64279,-12.92333 13.59816,-13.09504 4.80202,-0.10365 8.60027,2.18058 12.04983,7.24664 l 2.14799,3.15457 3.20786,-4.99901 c 4.62025,-7.20004 11.94467,-13.34797 19.72791,-16.55911 5.70987,-2.35573 8.25381,-2.80353 16.26825,-2.86365 8.27448,-0.0621 10.2286,0.27033 15.14796,2.5767 6.87921,3.22522 12.92102,9.08126 16.34926,15.84656 1.41104,2.78455 6.62712,19.11242 11.59128,36.28415 7.48087,25.87742 8.93846,32.03423 8.51582,35.97065 -0.88761,8.26694 -5.97728,12.75068 -14.47382,12.75068 -4.1785,0 -5.64687,-0.51448 -8.42162,-2.95074 -4.47173,-3.92623 -5.57601,-6.71041 -13.1083,-33.04926 -8.06799,-28.21214 -9.92008,-33.13605 -14.15131,-37.62247 -3.37214,-3.5755 -3.45982,-3.60263 -10.38197,-3.21149 -5.75414,0.32514 -7.72215,0.91642 -11.19743,3.36421 -5.87727,4.13963 -8.86987,10.18253 -8.86987,17.91074 0,5.98179 3.46179,20.39734 10.91187,45.43905 3.59898,12.09714 3.90421,18.26928 1.12861,22.82141 -3.13579,5.14288 -10.66321,8.01906 -16.42118,6.27444 z m 120.8807,-39.40003 c -2.75,-0.7813 -6.23405,-1.89303 -7.74233,-2.47051 -3.93453,-1.50644 -11.81886,-9.04841 -13.40529,-12.82319 -4.01318,-9.54905 1.42398,-18.30252 11.34796,-18.26946 3.09197,0.0103 5.04746,1.01713 10.49918,5.40578 8.14347,6.55551 12.15107,8.0089 20.09714,7.28838 13.1789,-1.19502 22.34396,-9.20568 19.69956,-17.21826 -2.03176,-6.1563 -4.70906,-6.85704 -27.18325,-7.11483 -20.53673,-0.23557 -27.91195,-1.32668 -35.56152,-5.26108 -8.59789,-4.42215 -13.19528,-12.65917 -13.22949,-23.70293 -0.0408,-13.16897 7.87201,-24.15772 22.29225,-30.95791 9.44988,-4.45631 17.30216,-6.48493 27.68579,-7.15257 15.74094,-1.01209 28.27931,3.84393 32.79366,12.70076 3.9007,7.65287 1.67246,13.51571 -6.53207,17.18685 -5.23883,2.34412 -9.37557,1.46609 -16.83314,-3.57287 -7.30197,-4.93382 -12.11548,-6.17925 -18.10668,-4.68484 -11.12225,2.77425 -17.36065,9.33822 -14.21619,14.95809 2.37749,4.24911 6.5706,4.99475 28.43432,5.05633 22.1345,0.0623 28.66235,1.11327 36.4601,5.86979 8.63721,5.26857 14.15854,17.9753 12.52986,28.83612 -1.01561,6.77254 -5.58591,15.22571 -10.86075,20.08788 -5.72228,5.27462 -18.17082,11.56215 -28.31562,14.30171 -10.15059,2.74112 -23.24232,3.41504 -29.85349,1.53676 z m 115.55644,-32.66628 c -14.26103,-2.79643 -28.84676,-14.39261 -35.49884,-28.22286 -17.88622,-37.18697 -3.43259,-72.18563 33.9424,-82.18966 26.49604,-7.0921 50.94073,3.77145 62.3568,27.71222 15.26466,32.01168 6.32113,63.20655 -22.01739,76.79628 -12.62312,6.05342 -26.921,8.23001 -38.78297,5.90402 z m 25.63396,-25.34569 c 13.00424,-6.05468 16.7531,-23.23799 9.30374,-42.64468 -7.48913,-19.51029 -25.38061,-26.56529 -39.98575,-15.76725 -3.82088,2.82489 -7.73308,10.76301 -8.54978,17.34808 -1.24077,10.00427 4.43338,27.75164 11.41496,35.70322 6.9549,7.92119 17.82008,10.01504 27.81683,5.36063 z"
       id="path4680"
       inkscape:connector-curvature="0" />
    <path
       style="fill:url(#linearGradient4690);fill-opacity:1"
       d="m -262.49918,-56.20357 c -21.28278,-3.99822 -40.75571,-21.98557 -50.40183,-46.55668 -5.54156,-14.11577 -7.1911,-23.73764 -6.66346,-38.86837 0.35945,-10.30757 0.91947,-13.98111 3.04377,-19.96623 6.63202,-18.68538 20.14219,-32.57998 39.03391,-40.14459 10.55674,-4.22712 16.764,-5.41286 28.21094,-5.38897 17.35585,0.0362 30.27258,5.05061 41.11985,15.96307 6.97725,7.01919 9.99307,13.3244 8.97325,18.76051 -1.79243,9.55445 -13.1208,14.84907 -20.20824,9.44486 -1.58667,-1.20985 -5.60502,-4.69735 -8.92966,-7.75 -9.28277,-8.52334 -14.07721,-10.55028 -24.9552,-10.55028 -7.76841,0 -9.83713,0.38687 -15.11743,2.82707 -11.32654,5.23437 -18.6693,15.55569 -20.29877,28.53286 -2.36685,18.84966 5.24993,44.68493 16.94745,57.48388 8.38,9.16906 19.04426,12.85655 31.00143,10.71969 12.96582,-2.31713 22.21321,-8.67296 26.79236,-18.41467 1.23236,-2.62174 2.86242,-9.1974 3.62236,-14.61259 1.60125,-11.41023 3.1123,-14.24279 8.81519,-16.52463 5.29769,-2.11972 9.75263,-1.31516 14.16392,2.55801 8.33305,7.31651 6.72578,28.10941 -3.39156,43.87591 -4.78128,7.45099 -15.30657,16.62897 -23.69948,20.6658 -14.76679,7.10254 -34.86123,10.42467 -48.0588,7.94535 z m 132.07121,-37.97649 c -22.87189,-5.54789 -39.66655,-27.88016 -41.08869,-54.63663 -0.29241,-5.50142 -0.0213,-11.82561 0.63895,-14.90421 3.12127,-14.55396 13.70164,-27.90458 27.24377,-34.37698 36.23294,-17.31736 69.99362,-1.73209 79.86622,36.86944 3.56684,13.9462 2.27855,28.02855 -3.63506,39.73499 -3.82524,7.57233 -14.56667,17.73499 -22.91311,21.6785 -13.71343,6.47928 -28.22609,8.518 -40.11208,5.63489 z m 27.71662,-24.33019 c 10.70165,-5.42668 14.75928,-16.5941 11.69001,-32.17331 -5.17806,-26.28315 -21.72123,-38.26194 -39.81075,-28.82669 -5.19999,2.71224 -6.74498,4.16005 -9.33738,8.75 -2.84722,5.04115 -3.10395,6.25084 -3.0773,14.5 0.0398,12.31396 4.40397,24.79841 11.48999,32.86894 7.05954,8.04037 18.89338,10.02904 29.04543,4.88106 z m 74.92533,-2.5 c -1.81826,-1.2375 -4.11569,-3.375 -5.10538,-4.75 -2.51669,-3.49647 -25.12018,-82.42912 -25.20006,-88 -0.078,-5.43847 2.17249,-9.22967 6.7753,-11.41385 7.14515,-3.39059 13.92352,-0.93746 18.58367,6.72554 l 1.76173,2.89693 3.47571,-5.35431 c 7.09831,-10.93491 17.57836,-17.71548 30.55384,-19.76827 15.43871,-2.44248 29.87922,5.14914 36.51622,19.19719 3.78379,8.00888 19.64914,63.98012 19.64914,69.32004 0,6.01465 -2.44585,9.95006 -7.79257,12.53836 -5.45239,2.63946 -10.39116,2.00588 -14.45281,-1.85409 -4.25827,-4.04685 -4.87974,-5.61718 -11.59073,-29.28754 -11.4312,-40.31902 -14.0281,-45 -24.96501,-45 -8.88204,0 -15.76331,4.36646 -19.76225,12.54 -2.41234,4.93063 -2.65201,6.31161 -2.12747,12.25831 0.32512,3.68593 3.57336,17.05169 7.21831,29.70169 7.31198,25.37659 8.16537,31.72521 4.86882,36.22036 -4.48353,6.11373 -12.701,7.91274 -18.40646,4.02964 z m 120.74053,-38.70164 c -9.15777,-2.92699 -14.64795,-7.46934 -17.9459,-14.8477 -3.13918,-7.02317 -0.26469,-13.89698 6.78428,-16.22335 4.74728,-1.56674 7.44914,-0.72205 12.96755,4.0541 8.64152,7.47918 15.13394,9.6855 23.79149,8.08506 14.46054,-2.67318 21.61975,-10.55325 17.60106,-19.37331 -2.17055,-4.76384 -4.05536,-5.16673 -27.42884,-5.86304 -18.38846,-0.5478 -23.08403,-1.00133 -28.60342,-2.76267 -19.85596,-6.33638 -25.97757,-27.44954 -12.79445,-44.12743 7.6729,-9.70696 21.71785,-16.46767 39.28701,-18.91132 19.50271,-2.71258 37.61086,5.95112 37.61086,17.99461 0,6.89669 -7.91366,12.99396 -15.02016,11.57266 -1.56262,-0.31253 -6.1232,-2.61072 -10.13462,-5.1071 -6.16687,-3.83776 -8.08093,-4.53887 -12.39122,-4.53887 -11.22428,0 -20.454,5.83093 -20.454,12.92194 0,4.03494 1.77947,6.31571 5.91314,7.57895 1.32723,0.40559 12.12723,0.83264 24,0.94898 23.96813,0.23488 28.0255,0.98692 36.73781,6.80945 3.30099,2.2061 5.8068,4.99655 7.84905,8.74068 2.7037,4.95679 3,6.38889 3,14.5 0,8.1044 -0.2948,9.53222 -2.96246,14.34835 -10.35196,18.68918 -45.6426,31.28422 -67.80718,24.20001 z m 114.06734,-32.97916 c -20.3766,-6.51519 -34.13641,-24.6169 -37.81003,-49.74094 -2.85422,-19.52011 4.75777,-37.74219 20.32385,-48.65255 10.80443,-7.5729 23.42167,-11.63404 36.22838,-11.66093 26.4156,-0.0555 45.95853,18.0695 52.08525,48.3061 4.88777,24.12214 -6.15674,46.64494 -28.03301,57.167 -3.91736,1.88417 -10.04065,4.11355 -13.60731,4.95416 -8.83465,2.08222 -22.03623,1.91358 -29.18713,-0.37284 z m 26.58846,-21.4849 c 6.58781,-1.98264 10.97631,-5.66394 14.01046,-11.75268 2.1614,-4.33737 2.60137,-6.59158 2.59151,-13.27796 -0.0293,-19.86908 -9.33429,-36.27276 -22.7956,-40.18607 -6.29439,-1.82983 -10.52519,-1.30308 -17.87519,2.22552 -6.19311,2.97319 -10.88407,9.33482 -11.90538,16.14544 -2.29127,15.27929 4.85917,36.33389 14.72545,43.35929 6.75151,4.8075 13.29293,5.88081 21.24875,3.48646 z"
       id="path4678"
       inkscape:connector-curvature="0" />
    <path
       style="fill:url(#linearGradient4692);fill-opacity:1"
       d="m -265.62004,-57.22332 c -25.02327,-6.05413 -45.51591,-30.95437 -52.11156,-63.31982 -5.36994,-26.3507 0.48732,-48.89344 16.9453,-65.21711 4.15893,-4.125 10.13262,-9.01437 13.27486,-10.86526 29.00743,-17.08646 69.05077,-11.73371 83.88183,11.21281 2.98255,4.61458 3.85376,6.95601 3.85376,10.35715 0,8.5717 -4.76024,13.2953 -13.39842,13.2953 -3.91667,0 -5.24732,-0.62752 -10.29966,-4.85721 -3.19106,-2.67147 -6.70192,-5.87067 -7.80192,-7.10934 -2.94386,-3.31499 -12.51531,-7.83394 -18.18615,-8.5862 -9.45339,-1.25404 -24.24602,4.29465 -30.53006,11.45179 -1.69319,1.92842 -4.4747,6.45254 -6.18115,10.05359 -2.97664,6.28147 -3.0992,7.05501 -3.01789,19.04737 0.0719,10.59969 0.50024,13.86809 2.81781,21.49913 4.41476,14.53639 8.05504,21.14664 16.00517,29.06316 5.84443,5.81972 8.12707,7.38287 12.97367,8.8844 11.20053,3.47003 26.05965,0.52995 35.20795,-6.96639 7.82011,-6.408 10.70707,-13.26931 12.92803,-30.72555 1.13687,-8.93555 8.79515,-14.00839 16.92735,-11.21267 7.44356,2.55897 9.54,6.73583 9.54969,19.02642 0.0176,22.34313 -15.82717,42.66174 -39.75833,50.98417 -15.33358,5.33249 -31.37549,6.81612 -43.08028,3.98426 z m 134.84419,-37.25197 c -4.63861,-0.82137 -16.53501,-7.12352 -21.20273,-11.23221 -13.47397,-11.86026 -22.3322,-38.27938 -18.86059,-56.25049 1.42065,-7.35411 6.82917,-19.00634 10.81603,-23.30226 10.61516,-11.43808 24.90567,-18.08428 41.24729,-19.1832 23.98984,-1.61323 42.75757,10.92157 51.92939,34.6832 13.20073,34.19941 -2.27119,65.68724 -36.57373,74.43337 -5.74937,1.46592 -21.17443,1.9461 -27.35566,0.85159 z m 27.57239,-23.08244 c 8.41002,-4.32395 12.56413,-11.31275 13.21192,-22.22753 1.01967,-17.18056 -7.53961,-35.28948 -19.39161,-41.02693 -3.60874,-1.74696 -5.8078,-2.09379 -11.30578,-1.78313 -8.69632,0.49139 -15.18977,4.21362 -19.49303,11.17398 -5.79656,9.37571 -4.42593,26.89121 3.20908,41.00944 3.08978,5.71345 11.10429,13.24658 15.5543,14.62004 4.62279,1.4268 13.72094,0.54477 18.21512,-1.76587 z m 78.96929,-1.92254 c -3.26099,-0.84403 -6.40126,-3.3149 -8.43059,-6.63345 -1.05827,-1.73059 -7.19035,-21.56715 -13.62685,-44.08123 -12.68674,-44.37672 -13.12959,-47.12055 -8.41519,-52.1388 3.15372,-3.35698 9.08323,-4.86138 13.46331,-3.41582 3.52906,1.16469 8.46764,6.12625 8.46764,8.50703 0,3.30252 2.01037,2.00494 5.39868,-3.48457 5.93493,-9.61535 14.07886,-15.47775 25.85725,-18.61335 17.08454,-4.54817 33.44758,2.6668 40.6233,17.91208 3.28325,6.97549 20.12131,64.67586 20.12098,68.95025 -6e-4,7.95249 -5.94843,13.70756 -14.17348,13.71414 -5.58673,0.004 -9.59036,-2.86186 -12.12906,-8.68357 -0.91444,-2.09698 -4.55813,-13.93769 -8.09709,-26.31269 -8.1864,-28.62619 -9.94318,-33.22472 -14.5382,-38.05509 -3.58137,-3.7648 -4.03553,-3.94491 -9.94738,-3.94491 -7.2548,0 -12.46823,2.25764 -16.64075,7.20615 -8.16468,9.68313 -7.4888,17.22471 5.43762,60.67389 3.45597,11.61644 3.8746,17.97998 1.45259,22.08013 -2.68824,4.55082 -9.8538,7.60592 -14.82278,6.31981 z m 120.21842,-39.77385 c -7.84834,-1.98971 -12.85289,-4.70884 -16.67177,-9.05831 -6.33755,-7.21807 -6.92219,-13.81396 -1.68833,-19.04782 5.44042,-5.44042 11.0373,-4.74529 18.9776,2.35699 6.1275,5.48081 11.85563,7.57838 19.10604,6.99639 15.0683,-1.20954 24.90654,-10.09711 21.14439,-19.10121 -2.62138,-6.27383 -5.23213,-6.92876 -30.62803,-7.68324 -19.38478,-0.5759 -23.23506,-0.95597 -27.80908,-2.74507 -11.80504,-4.61747 -17.1982,-12.36144 -17.18115,-24.6702 0.018,-12.98355 7.14462,-23.09522 21.08019,-29.90974 11.22848,-5.49075 18.5977,-7.13991 31.91004,-7.14116 10.30988,-9.7e-4 12.06919,0.26804 17,2.59946 6.74612,3.18974 10.6544,7.01223 12.09881,11.83324 2.24603,7.49658 -3.6036,14.33727 -12.26013,14.33727 -2.73082,0 -5.82836,-1.30684 -11.53596,-4.86699 -6.87422,-4.28783 -8.4572,-4.86684 -13.30272,-4.8658 -16.175,0.003 -26.89953,13.23048 -16.34354,20.15717 2.3944,1.57117 5.84537,1.86715 26.85034,2.30289 l 24.10281,0.5 7.55144,3.73358 c 8.60735,4.25564 11.67107,7.94122 14.39752,17.31991 2.17315,7.47537 1.40757,14.04171 -2.58202,22.1457 -3.85068,7.82185 -8.95068,12.25298 -20.47655,17.79104 -15.44261,7.42001 -31.79797,10.04342 -43.7399,7.0159 z m 114.62865,-32.99452 c -23.20982,-5.04888 -39.71983,-26.97399 -41.14773,-54.64373 -0.9832,-19.05245 5.78799,-33.98677 19.89667,-43.88344 9.94483,-6.9759 25.35627,-12.00538 36.67769,-11.96966 16.1646,0.051 32.21831,8.84759 41.16875,22.55829 7.12358,10.91223 10.12205,20.44327 10.75169,34.17572 0.45272,9.87399 0.23503,12.12187 -1.78122,18.39241 -5.89875,18.34514 -20.88846,30.88438 -42.16244,35.26988 -9.12648,1.88136 -15.09894,1.90702 -23.40341,0.10053 z m 23.98833,-21.74273 c 2.37958,-0.71294 6.07019,-3.13315 8.76829,-5.75 9.65469,-9.364 10.33719,-25.74527 1.81648,-43.59881 -3.61587,-7.57638 -11.27536,-14.88694 -17.30504,-16.51672 -9.74759,-2.6347 -21.15012,1.45398 -26.91,9.64929 -6.1035,8.68422 -5.65683,24.49468 1.09993,38.93355 7.16793,15.3175 18.67847,21.43281 32.53034,17.28269 z"
       id="path4676"
       inkscape:connector-curvature="0" />
    <path
       style="fill:url(#linearGradient4694);fill-opacity:1"
       d="m -261.42916,-56.85501 c -22.64603,-3.78344 -42.26722,-22.36741 -51.79179,-49.05394 -4.5958,-12.8768 -5.93758,-22.29324 -5.28515,-37.09034 0.39215,-8.89375 1.13494,-13.95907 2.70472,-18.44427 7.93115,-22.66106 28.40798,-39.40859 53.54327,-43.79182 10.66269,-1.85942 14.68025,-1.86524 24.94662,-0.0361 19.23381,3.42681 37.43378,18.47359 37.50994,31.01124 0.0397,6.53724 -6.29979,12.5 -13.28978,12.5 -3.7656,0 -6.24536,-1.61804 -14.89692,-9.72022 -3.14403,-2.94439 -8.68105,-6.73887 -12.31509,-8.43944 -6.0143,-2.81443 -7.28929,-3.05003 -14.3074,-2.64376 -18.82734,1.0899 -32.73227,14.2585 -35.00697,33.15318 -1.7021,14.13835 3.43641,36.66838 11.30421,49.56387 3.49118,5.72211 9.89926,12.41059 14.78173,15.42855 4.49968,2.78134 14.49745,4.91829 19.64312,4.19857 20.91956,-2.92602 31.41952,-13.46702 34.51777,-34.65272 1.58433,-10.83358 2.71787,-13.24391 7.23689,-15.38832 4.27671,-2.02944 8.22204,-1.88009 12.05381,0.45629 4.56123,2.78116 6.20737,5.82296 6.93892,12.822 1.46794,14.04457 -4.60583,29.47904 -16.02492,40.722 -3.91032,3.85 -9.80967,8.41732 -13.10967,10.14961 -8.11041,4.25743 -20.5907,8.04864 -30.64573,9.30943 -9.33869,1.17097 -11.20915,1.16554 -18.50758,-0.0538 z m 129.75794,-38.42043 c -8.47106,-2.38371 -15.06752,-6.40117 -22.10463,-13.46247 -16.8885,-16.94655 -22.13222,-47.09002 -11.74611,-67.52234 7.20147,-14.16723 23.43382,-24.53386 43.02409,-27.47688 32.48385,-4.88001 59.68288,21.53602 59.69537,57.97688 0.003,9.31675 -1.45278,16.09361 -4.94142,23 -8.45053,16.72936 -27.12537,27.73411 -48.53193,28.599 -6.99404,0.28258 -11.62183,-0.0523 -15.39537,-1.11419 z m 26.62366,-21.01575 c 6.28541,-2.62621 10.39386,-6.49796 13.11787,-12.3621 6.91729,-14.89123 -0.63136,-41.81486 -14.25353,-50.83781 -8.2093,-5.43762 -17.07159,-5.52201 -26.30173,-0.25045 -9.93375,5.6734 -14.13124,18.12169 -10.99058,32.59423 3.19319,14.7146 10.25028,25.97562 18.98937,30.30142 5.09894,2.52394 14.11013,2.78109 19.4386,0.55471 z m 77.57604,-5.42506 c -1.75761,-1.07168 -3.89868,-3.02145 -4.75792,-4.33282 -2.60533,-3.97624 -24.64383,-81.58772 -24.85626,-87.53457 -0.17764,-4.97307 0.0557,-5.54888 3.54516,-8.75 3.08092,-2.82629 4.51282,-3.42661 8.17328,-3.42661 5.22004,0 10.03464,3.42322 12.2408,8.70331 0.7576,1.81318 1.55365,3.29669 1.76901,3.29669 0.21536,0 1.61115,-2.08107 3.10176,-4.62461 8.23437,-14.05089 20.99005,-21.53143 36.97984,-21.68674 6.5991,-0.0641 8.99033,0.37687 13.65538,2.51818 6.92598,3.17911 12.9507,9.21059 16.32505,16.34339 2.49824,5.28084 17.85661,56.78419 19.4739,65.30454 1.07678,5.67274 -0.20688,10.05495 -4.01366,13.70209 -2.61833,2.50851 -3.86263,2.94315 -8.42577,2.94315 -4.33054,0 -5.86514,-0.47781 -8.02935,-2.5 -3.99507,-3.73291 -4.62659,-5.3838 -12.43229,-32.5 -8.0021,-27.79853 -11.77223,-36.74382 -16.95114,-40.21956 -10.56138,-7.08811 -28.5288,3.04513 -30.66567,17.29477 -0.87731,5.85034 0.45193,12.38667 7.61077,37.42479 3.22372,11.275 6.15016,22.3234 6.50319,24.55201 1.77638,11.21375 -9.7409,19.28766 -19.24608,13.49199 z m 122.43014,-38.06663 c -9.57304,-2.4217 -19.00811,-10.58864 -20.32163,-17.59027 -0.98782,-5.26553 1.83612,-10.34587 6.79395,-12.22251 4.85221,-1.83666 7.69122,-1.01308 13.3295,3.86682 8.70975,7.53823 15.64709,9.75805 24.57475,7.86346 14.92691,-3.16773 22.10804,-11.76917 17.41026,-20.85369 -2.50417,-4.84253 -7.41243,-5.86972 -30.5213,-6.38749 -22.94323,-0.51405 -28.05164,-1.52627 -35.20587,-6.97602 -6.80552,-5.18412 -9.29413,-10.58691 -9.29413,-20.17767 0,-6.99841 0.37138,-8.67049 2.9663,-13.35541 6.99428,-12.6276 23.23629,-21.2279 44.60845,-23.6206 12.08128,-1.35254 27.04407,3.56079 31.64774,10.39218 4.15661,6.168 2.54149,13.3446 -3.73353,16.58954 -4.995,2.58301 -8.73187,1.86334 -16.90503,-3.25571 -7.17201,-4.49201 -7.96413,-4.75 -14.58393,-4.75 -5.49008,0 -8.05958,0.53926 -11.91221,2.5 -9.90957,5.04334 -11.55609,14.33669 -3.30815,18.67199 2.73318,1.43661 5.9643,1.65949 21.35832,1.47326 20.74139,-0.25092 29.37879,0.822 37.11583,4.61046 9.62167,4.71127 14.24706,13.04803 14.24542,25.67579 -0.002,15.67408 -12.63597,28.32576 -35.49921,35.54904 -7.88971,2.49264 -26.35672,3.61807 -32.76553,1.99683 z m 114.01968,-33.06133 c -5.69724,-1.34309 -14.72345,-6.23721 -19.85858,-10.76758 -9.85694,-8.69608 -18.07998,-26.53468 -19.42912,-42.14846 -2.61663,-30.2826 20.10806,-54.14121 53.10418,-55.75398 16.09278,-0.78657 27.45942,3.46068 37.92937,14.17267 6.82398,6.98174 10.25651,12.82067 13.86272,23.58131 10.92343,32.59454 -4.92096,62.12145 -37.82282,70.48497 -6.45058,1.63971 -21.65803,1.87564 -27.78575,0.43107 z m 29.32095,-22.45409 c 8.88214,-4.50093 12.81871,-12.13749 12.86763,-24.96195 0.0239,-6.27 -0.5862,-9.77167 -2.82133,-16.19267 -6.32507,-18.17043 -18.22508,-27.30292 -31.66557,-24.30128 -13.40173,2.99298 -20.45583,12.20909 -20.45583,26.72533 0,15.20912 7.872,32.31819 17.65042,38.36158 7.28752,4.50394 16.00485,4.63563 24.42468,0.36899 z"
       id="path4674"
       inkscape:connector-curvature="0" />
    <path
       style="fill:url(#linearGradient4696);fill-opacity:1"
       d="m -258.78343,-56.72345 c -28.55787,-3.74206 -51.2457,-28.97598 -58.57522,-65.1487 -2.23788,-11.04439 -1.53087,-29.82864 1.43641,-38.1634 7.41867,-20.83824 22.38742,-35.43269 43.66151,-42.56974 19.40474,-6.50993 39.64498,-4.40038 55.82531,5.81842 10.35963,6.5427 17.55548,17.43749 16.21978,24.55737 -1.42463,7.59394 -10.2824,12.40275 -16.97076,9.2133 -1.75343,-0.83615 -6.48622,-4.54701 -10.51733,-8.24635 -4.0311,-3.69934 -9.79004,-7.85265 -12.79763,-9.22957 -4.85527,-2.22282 -6.4385,-2.4517 -14.12142,-2.04144 -19.47182,1.03976 -32.76017,13.33858 -35.21658,32.59412 -1.66886,13.08206 2.22179,32.58799 9.30347,46.64328 3.9202,7.78057 13.52594,17.75873 19.61944,20.38008 17.04952,7.33451 39.91142,-0.43813 47.60141,-16.18363 1.51614,-3.10435 3.1167,-9.14276 4.01702,-15.15497 1.6901,-11.28622 3.32714,-14.27731 8.99469,-16.43439 5.07278,-1.93072 11.03213,0.044 14.15254,4.68967 7.47347,11.12652 0.96767,35.92737 -13.04765,49.73915 -13.4564,13.26097 -40.30287,22.06342 -59.58499,19.5368 z m 130.06402,-38.12726 c -13.97999,-2.74132 -27.48505,-13.34102 -34.31365,-26.93171 -15.44327,-30.73617 -7.2893,-61.69668 19.75721,-75.01775 10.46132,-5.15246 18.07406,-7.03727 28.56951,-7.07342 19.81468,-0.0683 35.37566,9.94333 44.47366,28.61334 9.40625,19.30256 9.98973,36.92743 1.76606,53.34568 -9.44359,18.85376 -37.60772,31.5043 -60.25279,27.06386 z m 25.56426,-21.96797 c 15.0366,-7.27909 18.71458,-28.4675 8.46577,-48.77028 -4.17416,-8.26895 -8.20128,-12.59111 -14.68921,-15.76536 -4.72847,-2.31342 -6.33294,-2.60464 -11.8918,-2.15843 -21.65593,1.73833 -29.69096,23.92544 -18.13089,50.0648 2.83866,6.41871 9.46334,14.01917 14.57528,16.72214 5.08164,2.68695 16.02538,2.64005 21.67085,-0.0929 z m 75.67785,-4.90109 c -1.7608,-1.07362 -3.9395,-3.37926 -4.84155,-5.12364 -2.59566,-5.01945 -24.47448,-81.96758 -24.59523,-86.5018 -0.13571,-5.09577 1.36232,-7.97112 5.45205,-10.46481 6.38595,-3.89379 13.92127,-1.33006 17.66617,6.01054 1.13336,2.22158 2.38978,4.03923 2.79205,4.03923 0.40227,0 1.79457,-2.00411 3.09401,-4.45357 7.28505,-13.73245 20.72012,-21.54734 37.0405,-21.54564 9.42386,9.8e-4 17.60124,3.4775 23.45828,9.97304 5.66426,6.28173 7.64118,11.39393 17.19876,44.47508 9.52355,32.96333 10.0573,37.13238 5.38995,42.10054 -5.39328,5.74088 -14.66585,5.31642 -19.39817,-0.88797 -1.61828,-2.12168 -4.96718,-11.97156 -10.08721,-29.66881 -8.51064,-29.4168 -10.92843,-35.43359 -16.04335,-39.92454 -2.99349,-2.62833 -4.28242,-3.06813 -8.99172,-3.06813 -9.8502,0 -16.76382,4.43396 -21.0498,13.5 -4.06893,8.60693 -3.50233,12.67197 6.74482,48.39009 2.74397,9.56455 5.05469,19.0367 5.13495,21.04922 0.2243,5.62471 -2.02077,9.89644 -6.36637,12.1134 -4.83367,2.46595 -8.53969,2.46235 -12.59814,-0.0122 z m 121.78282,-38.56162 c -6.6528,-1.87133 -11.0055,-4.48948 -14.96936,-9.00407 -6.83682,-7.7867 -5.76255,-16.91522 2.35548,-20.01552 4.9931,-1.90688 7.71505,-1.09603 13.32038,3.96805 4.56434,4.12361 13.56347,8.54899 17.41291,8.56291 4.29109,0.0155 12.97513,-2.07273 16.92343,-4.06959 8.32869,-4.21223 11.55417,-13.24592 6.86015,-19.21339 -3.0355,-3.85901 -6.71817,-4.51919 -27.98436,-5.01662 -22.02529,-0.5152 -27.51526,-1.45354 -35.14535,-6.00702 -9.55227,-5.7006 -13.9583,-17.95083 -10.38699,-28.87932 3.78174,-11.57244 13.19069,-19.92827 28.07019,-24.92834 16.83678,-5.65781 30.39149,-5.64678 41.931,0.0341 6.35449,3.1283 10.53115,8.29433 10.53115,13.02576 0,5.50821 -6.10296,11.06419 -12.15343,11.06419 -1.29314,0 -6.1741,-2.25 -10.84657,-5 -7.65969,-4.50814 -9.08586,-4.99904 -14.4977,-4.99023 -11.25386,0.0183 -20.5023,6.34994 -20.5023,14.0362 0,8.19944 7.58311,10.63823 29.2761,9.41542 25.40426,-1.43201 39.54342,3.36279 45.46329,15.41726 3.81394,7.76621 3.94859,19.2072 0.31301,26.59527 -4.95904,10.07755 -15.87359,17.91904 -32.0524,23.02785 -10.7481,3.39394 -25.76888,4.26949 -33.91863,1.97709 z m 117.41863,-32.13944 c -10.76803,-2.30745 -22.75096,-10.01353 -28.75383,-18.49124 -5.53438,-7.81609 -6.95437,-10.58156 -9.67799,-18.84818 -8.94017,-27.13479 -0.18309,-52.20684 22.41264,-64.16876 28.65303,-15.16858 60.17812,-7.15254 73.70315,18.74085 7.14384,13.67673 10.00188,28.41177 7.84147,40.42791 -1.71958,9.56422 -7.30578,20.47063 -13.6649,26.67912 -5.98095,5.83928 -18.30491,12.40022 -27.82064,14.81094 -5.47345,1.38665 -19.25954,1.87373 -24.0399,0.84936 z m 26.35104,-22.26343 c 5.08764,-2.59552 10.49788,-8.95952 12.06584,-14.19291 1.71253,-5.71589 1.45779,-18.28549 -0.50427,-24.88308 -3.52902,-11.86656 -10.13693,-21.22995 -17.8444,-25.28543 -6.09006,-3.20445 -15.46749,-2.96856 -22.2562,0.55984 -9.21142,4.78759 -13.31861,12.33594 -13.30014,24.44347 0.0273,17.8946 8.36954,34.17973 20.48813,39.99547 4.16875,2.00059 6.03216,2.3139 11.20849,1.88458 3.41467,-0.28321 7.97881,-1.41808 10.14255,-2.52194 z"
       id="path4672"
       inkscape:connector-curvature="0" />
    <path
       style="fill:url(#linearGradient4698);fill-opacity:1"
       d="m -265.00276,-57.84028 c -6.1788,-1.45749 -15.91294,-6.34813 -22.27309,-11.19047 -14.40661,-10.96858 -25.0878,-29.45079 -29.60642,-51.2295 -5.35482,-25.80903 0.59935,-49.09129 16.623,-65 8.35839,-8.29844 15.49121,-12.71644 26.72221,-16.55148 14.92024,-5.09481 27.96367,-5.65659 42.23598,-1.8191 14.09497,3.78979 28.43648,16.40109 30.94994,27.21602 1.08964,4.68851 -2.64731,11.12635 -7.61143,13.11259 -5.97115,2.38918 -8.95376,1.26346 -17.63271,-6.65508 -4.36122,-3.97912 -10.38614,-8.30277 -13.94094,-10.00441 -5.76278,-2.75857 -6.95504,-2.96777 -15,-2.63199 -27.91064,1.16493 -41.29262,24.36996 -33.69791,58.43386 3.27903,14.70718 11.39428,29.79894 19.5465,36.35024 7.16999,5.76197 12.41815,7.552 21.91178,7.47364 14.30574,-0.11808 25.47059,-5.78953 32.15888,-16.33587 3.39992,-5.36112 4.41341,-8.81585 5.71952,-19.49644 1.14076,-9.32846 3.04241,-12.39892 8.88534,-14.34656 3.76501,-1.255 4.55904,-1.19623 8.72293,0.64566 5.97497,2.64301 7.88769,6.80134 7.86965,17.10892 -0.0372,21.232 -15.31228,41.85346 -37.0182,49.97468 -14.58273,5.4561 -33.50019,7.55533 -44.56503,4.94529 z m 134.98701,-37.41109 c -17.84285,-4.53206 -30.59732,-17.12101 -36.90321,-36.42431 -5.54223,-16.9656 -5.00469,-30.52378 1.74509,-44.0158 8.265,-16.52075 28.89789,-28.08885 50.04236,-28.0569 24.96516,0.0377 43.41612,15.9391 50.35641,43.39809 4.77819,18.90474 0.17455,37.41628 -12.37787,49.77227 -12.82522,12.62452 -36.48927,19.4855 -52.86278,15.32665 z m 26.2399,-21.15473 c 4.5003,-1.8715 9.64121,-6.8177 12.15326,-11.69295 6.08245,-11.80452 1.46278,-35.52832 -9.16308,-47.05602 -5.61278,-6.08915 -11.07796,-8.60518 -18.69171,-8.60518 -10.82191,0 -21.48712,7.81668 -24.25286,17.77526 -2.40098,8.64516 -0.62162,21.87744 4.42911,32.93742 7.41504,16.23727 21.09155,22.6439 35.52528,16.64147 z m 79,-4.05786 c -1.89078,-0.688 -6.89456,-5.28525 -8.03188,-7.37933 -2.29583,-4.22714 -23.96812,-82.49441 -23.96812,-86.55841 0,-3.62749 0.55881,-5.07121 2.84954,-7.36193 6.26947,-6.26947 15.5853,-4.50745 19.5974,3.70671 2.23307,4.57187 4.06272,5.41694 5.04276,2.32914 1.31388,-4.13968 9.42119,-13.76587 14.11093,-16.75458 8.27419,-5.27302 16.64643,-7.55349 25.89937,-7.05457 12.79509,0.68991 22.02688,6.79772 27.4334,18.15011 3.54784,7.44961 20.0666,64.49191 20.0666,69.29364 0,14.11709 -18.584,17.66402 -24.32119,4.64192 -0.92297,-2.09494 -4.61819,-14.06944 -8.21159,-26.61 -8.4553,-29.50802 -9.80281,-32.97045 -14.9029,-38.29321 -4.06711,-4.24467 -4.43803,-4.40498 -10.1429,-4.38382 -7.39045,0.0274 -12.76482,2.38255 -17.55073,7.69103 -7.97205,8.84252 -7.73634,16.15994 1.57069,48.76038 7.19112,25.18888 7.86863,30.59151 4.39072,35.01295 -3.31702,4.21691 -9.52717,6.37643 -13.8321,4.80997 z m 120.02424,-39.89938 c -10.40445,-2.79593 -17.23656,-8.37897 -19.86388,-16.23229 -2.11383,-6.31845 2.88245,-13.18587 9.7349,-13.38071 2.96107,-0.0842 5.73389,1.48785 14.50668,8.22451 5.03851,3.86909 10.74555,5.36447 17.46491,4.57623 12.29809,-1.44269 21.13315,-8.08867 21.13315,-15.89694 0,-4.96932 -1.88388,-8.05881 -6.3107,-10.34934 -2.6002,-1.3454 -6.88351,-1.69306 -23.1893,-1.88218 -26.34022,-0.30552 -33.30681,-2.07243 -40.77826,-10.34243 -4.44454,-4.91958 -7.19993,-13.43928 -6.29598,-19.46725 2.62008,-17.47198 19.49028,-29.8728 45.57424,-33.50038 12.39009,-1.72313 26.2157,1.9187 31.91151,8.40587 5.969,6.79831 4.93916,13.8896 -2.54316,17.51173 -5.4435,2.63515 -7.66564,2.18181 -16.36835,-3.33933 -5.43195,-3.44613 -7.53411,-4.19266 -12.79345,-4.54332 -10.03858,-0.6693 -18.97985,3.63876 -21.86031,10.53269 -1.70218,4.07387 -0.46109,7.41124 3.97769,10.6963 2.6541,1.96425 4.15752,2.09588 25,2.18894 19.73375,0.0881 22.89654,0.33325 28.71789,2.22588 7.93182,2.57879 13.95777,7.48816 17.09551,13.92778 3.5019,7.187 3.32365,18.86809 -0.39608,25.95652 -3.71989,7.08873 -9.61479,12.48189 -18.95382,17.34059 -14.91611,7.76021 -33.26413,10.70593 -45.76319,7.34713 z m 114.24031,-32.9385 c -7.89081,-2.12509 -15.00474,-6.09947 -20.90348,-11.67825 -6.78455,-6.41655 -10.68251,-12.53805 -14.30605,-22.46679 -12.57646,-34.46031 2.42626,-63.35709 37.55903,-72.34254 32.72528,-8.36972 60.26738,12.56027 65.53391,49.801 2.11636,14.96524 -3.2199,31.0798 -13.7518,41.52805 -13.3314,13.2255 -36.85225,19.81207 -54.13161,15.15853 z m 28.26486,-21.23792 c 9.30706,-4.79402 13.69824,-12.5189 13.76805,-24.22049 0.0876,-14.68247 -4.88823,-27.68347 -13.66536,-35.70527 -7.88036,-7.2022 -14.43971,-8.72891 -24.57344,-5.71951 -6.64078,1.9721 -14.04321,9.00267 -15.83634,15.0408 -1.72313,5.80245 -1.52061,19.0162 0.39012,25.45248 3.79486,12.78302 12.7867,24.44297 20.74483,26.90035 4.78376,1.47717 14.65833,0.57668 19.17214,-1.74836 z"
       id="path4670"
       inkscape:connector-curvature="0" />
    <path
       style="fill:url(#linearGradient4700);fill-opacity:1"
       d="m -262.77585,-57.87457 c -3.025,-0.48428 -9.31942,-2.75646 -13.9876,-5.04927 -6.69637,-3.28898 -10.17856,-5.87482 -16.5,-12.25274 -16.18884,-16.33348 -24.75535,-38.14375 -24.77764,-63.08367 -0.0184,-20.56832 5.15827,-33.64304 18.64714,-47.09721 12.46695,-12.43487 26.7108,-18.69286 45.65183,-20.05698 21.04265,-1.51548 42.45639,8.11473 50.36842,22.65174 5.02105,9.22533 1.96455,18.2573 -6.65161,19.65551 -5.76201,0.93504 -8.14027,-0.19735 -16.2956,-7.75908 -12.97822,-12.03357 -23.58813,-15.17451 -37.24568,-11.02616 -12.14842,3.68997 -21.18699,12.38825 -25.32748,24.37392 -5.89419,17.06217 2.10005,50.51158 15.6825,65.61853 5.68487,6.32295 11.01384,9.56066 19.1788,11.65242 7.61058,1.94974 15.57734,0.83901 24.90817,-3.47273 12.36575,-5.71415 18.60871,-15.17014 20.57866,-31.16972 0.95516,-7.75774 1.5805,-9.7457 3.87257,-12.31096 2.42175,-2.71041 3.36083,-3.05928 8.23493,-3.05928 8.94815,0 12.64451,5.12237 12.65701,17.5399 0.0128,12.75337 -5.87048,26.08242 -15.87894,35.97477 -10.26523,10.14614 -22.65664,15.86906 -40.11548,18.52717 -10.47165,1.5943 -14.78627,1.65881 -23,0.34384 z m 131.75415,-37.96964 c -5.90664,-1.39245 -15.50214,-6.64513 -20.5016,-11.2228 -6.30611,-5.77407 -11.60327,-14.28411 -14.93965,-24.00096 -2.5404,-7.39865 -2.8129,-9.50009 -2.8129,-21.69228 l 0,-13.5 3.7348,-7.82178 c 4.56937,-9.56962 11.58592,-16.76322 21.33729,-21.87568 17.27896,-9.05903 36.33473,-9.90334 51.47155,-2.28056 9.55193,4.81027 16.80532,12.32841 21.87659,22.6751 5.86874,11.97372 7.35585,18.90572 6.93047,32.30576 -0.3426,10.79257 -0.49198,11.43306 -4.60005,19.72349 -6.82366,13.77072 -18.24136,22.5513 -34.84666,26.79823 -8.14862,2.08406 -20.85343,2.49369 -27.64984,0.89148 z m 25.37372,-19.44394 c 6.38762,-2.17648 11.32047,-6.64521 14.49278,-13.12917 4.71118,-9.6293 3.40403,-24.4251 -3.3395,-37.80022 -6.07358,-12.04636 -14.29749,-18.01259 -24.78115,-17.97809 -10.53729,0.0347 -18.88191,5.4014 -23.51403,15.12272 -5.64072,11.83807 -0.81349,34.73287 9.80734,46.51464 7.09224,7.86748 17.47606,10.62925 27.33456,7.27012 z m 77.48701,-7.5604 c -1.46016,-1.14856 -3.27211,-3.28606 -4.02655,-4.75 -2.97053,-5.7641 -23.85713,-80.68669 -23.97246,-85.99192 -0.10487,-4.82418 0.19418,-5.60741 3.14991,-8.25 2.54823,-2.27826 4.2214,-2.91978 7.61514,-2.91978 5.23172,0 8.80666,2.48719 11.68532,8.12985 1.10575,2.16743 2.40024,3.69988 2.87666,3.40544 0.47642,-0.29444 2.19977,-2.89828 3.82967,-5.78629 5.89988,-10.45402 16.1765,-17.38242 29.31701,-19.76524 14.97153,-2.71486 28.76758,3.95501 35.47146,17.14911 3.67127,7.22555 19.63749,63.47124 19.76553,69.62991 0.0963,4.6339 -0.26402,5.63621 -3.01568,8.38786 -2.41537,2.41538 -4.23523,3.23176 -8.01342,3.5948 -4.25352,0.40871 -5.31567,0.11013 -8.17899,-2.2992 -4.07923,-3.43245 -3.88926,-2.9413 -12.16305,-31.44624 -8.39038,-28.90663 -9.09713,-30.89216 -13.03164,-36.61077 -4.86985,-7.07807 -11.24546,-8.95112 -19.97939,-5.86961 -6.3226,2.23074 -10.6261,5.93934 -13.684,11.79239 -4.36878,8.36216 -3.74879,14.63414 4.15365,42.01941 7.71787,26.74566 8.20438,29.26469 6.59426,34.1434 -2.29634,6.95799 -12.5911,10.001 -18.39343,5.43688 z m 120.41981,-38.68034 c -7.17528,-2.11019 -15.54136,-9.9359 -16.56817,-15.49803 -1.32243,-7.16348 3.23682,-12.73333 10.423,-12.73333 2.03012,0 4.41431,1.23373 7.43279,3.84621 10.2589,8.87901 16.62603,10.9216 26.711,8.56894 8.09036,-1.88735 14.18715,-5.41776 16.87966,-9.77434 2.46651,-3.99089 2.60452,-6.46652 0.62467,-11.20497 -2.57194,-6.15553 -7.05748,-7.38674 -27.03764,-7.42143 -18.68888,-0.0325 -27.65565,-1.10498 -34.48152,-4.12439 -6.01142,-2.65913 -8.81939,-5.40655 -11.64106,-11.39002 -6.24918,-13.25166 -0.24117,-28.97075 14.49421,-37.92202 9.32348,-5.66371 21.63334,-8.84146 34.62837,-8.93919 10.34485,-0.0778 11.40059,0.10536 17.72588,3.07542 7.77715,3.65176 10.76454,7.49654 10.77038,13.86148 0.005,5.361 -3.18255,8.46555 -9.41262,9.16777 -4.00985,0.45197 -5.33334,0.033 -11.31692,-3.58231 -8.78799,-5.30978 -12.42662,-6.51595 -17.82201,-5.90781 -13.39433,1.50974 -23.05189,12.15168 -17.81402,19.62979 3.21578,4.59116 7.31187,5.36539 27.55666,5.2087 28.6157,-0.22148 38.73556,2.76277 45.28621,13.35446 2.81746,4.55551 3.02644,5.55495 3.02644,14.47356 0,8.20621 -0.35289,10.27095 -2.4606,14.39691 -7.0635,13.82721 -30.4523,24.77634 -52.5394,24.59557 -5.11124,-0.0418 -11.36148,-0.76815 -14.46531,-1.68097 z m 122.64022,-31.37344 c -25.20636,-2.6118 -44.04148,-26.87808 -44.13226,-56.85792 -0.0236,-7.78906 0.47421,-12.04911 1.92806,-16.5 4.44233,-13.59996 15.35048,-24.48259 30.70049,-30.62866 7.98873,-3.19865 8.88001,-3.33555 21.8288,-3.35307 l 13.5,-0.0183 7.80848,3.72848 c 13.27589,6.33913 22.26596,17.32815 27.62834,33.77152 2.65649,8.14596 3.64879,21.60368 2.17245,29.46302 -4.93885,26.29213 -31.15805,43.53202 -61.43436,40.3949 z m 23.05468,-21.49485 c 15.33618,-7.30269 18.74198,-26.79953 8.50345,-48.67878 -3.87162,-8.27345 -8.1845,-13.02419 -14.73191,-16.22754 -5.9447,-2.90847 -12.13726,-3.38242 -18.23361,-1.39552 -18.05551,5.88457 -23.35376,26.58264 -12.7412,49.77466 8.07688,17.65072 21.92467,23.80246 37.20327,16.52718 z"
       id="path4668"
       inkscape:connector-curvature="0" />
    <path
       style="fill:url(#linearGradient4702);fill-opacity:1"
       d="m -265.22404,-58.88625 c -17.04562,-3.99396 -35.32551,-20.75812 -44.02443,-40.374 -7.73412,-17.44027 -10.55924,-39.26957 -7.09653,-54.8338 4.26253,-19.15924 16.98256,-34.96927 35.06915,-43.58828 25.02549,-11.92568 52.67393,-9.41518 70.23952,6.3778 6.36566,5.72327 10.75071,14.03581 9.76696,18.51478 -1.05791,4.81665 -4.976,8.76408 -9.44902,9.51979 -4.92569,0.83219 -6.64634,-0.0906 -15.26917,-8.18912 -4.15872,-3.90584 -9.40054,-7.62867 -13.33127,-9.46808 -5.96051,-2.78926 -7.17563,-3.00218 -15.21739,-2.66654 -25.26298,1.05442 -39.51092,20.44937 -36.28373,49.39106 1.95757,17.55565 9.06114,34.40592 18.5441,43.98819 6.74298,6.8136 10.90602,9.09318 19.53786,10.69843 11.14901,2.07338 25.6821,-2.32464 33.83862,-10.24027 5.99467,-5.81763 8.95586,-12.48203 10.56394,-23.77504 1.63223,-11.46264 2.03663,-12.66181 4.89355,-14.51074 8.03594,-5.20067 16.61404,-1.10255 18.69731,8.9325 1.5399,7.41764 -0.169,17.61411 -4.53626,27.06647 -9.4573,20.46909 -35.00165,34.46816 -62.37324,34.1824 -5.29198,-0.05525 -11.39847,-0.51675 -13.56997,-1.02555 z m 135.08227,-37.39374 c -18.53453,-4.69704 -31.91873,-19.27668 -37.56354,-40.9186 -7.96611,-30.54166 7.4781,-55.96976 38.92946,-64.09535 4.76494,-1.23105 9.20314,-1.56268 16.6267,-1.24239 9.11411,0.39323 10.89939,0.80387 17.85431,4.10675 14.19274,6.7401 23.86173,19.65004 28.51974,38.07929 5.92327,23.43523 -2.64513,45.57198 -22.00075,56.83968 -12.16118,7.07952 -30.56667,10.2208 -42.36592,7.23062 z m 26.31209,-19.14321 c 5.59811,-2.27248 9.41497,-5.75286 12.57542,-11.4668 2.71329,-4.90549 2.969,-6.19241 2.95476,-14.87025 -0.0279,-16.98775 -6.91476,-32.22264 -17.69253,-39.13872 -12.86587,-8.25601 -30.59948,-2.94332 -37.18074,11.13872 -2.81641,6.02633 -2.91065,20.9225 -0.18347,29 4.00407,11.85945 9.35382,19.84275 16.08456,24.00258 6.34645,3.92232 15.74851,4.45755 23.442,1.33447 z m 79.05383,-6.04328 c -1.92966,-0.70539 -5.93686,-4.33632 -7.03765,-6.37681 -2.17426,-4.03033 -23.96235,-82.49336 -23.96235,-86.29293 0,-6.18688 4.79815,-10.62403 11.48837,-10.62403 3.08277,0 8.42776,4.55503 10.13245,8.63493 2.06529,4.94294 3.12635,4.88558 6.12115,-0.33088 1.51692,-2.64223 5.45803,-7.52303 8.75803,-10.84623 8.18385,-8.24138 15.24898,-10.95782 28.5,-10.95782 8.66471,0 9.97165,0.26124 14.86422,2.9711 6.20337,3.43587 11.13077,9.0185 14.1246,16.00282 3.30599,7.71256 19.01118,63.123 19.01118,67.0745 0,7.2922 -4.67067,11.90613 -12.05255,11.90613 -4.12074,0 -8.02125,-2.78886 -10.42601,-7.45455 -0.70869,-1.375 -4.28425,-13.00587 -7.94568,-25.84639 -7.66358,-26.87587 -9.44686,-31.9171 -13.21238,-37.35075 -3.84846,-5.55333 -7.33635,-7.10125 -14.91392,-6.61874 -8.13206,0.51781 -14.70068,4.43088 -18.92302,11.27285 -2.81941,4.56863 -3.01849,5.52452 -2.91028,13.97357 0.10263,8.0132 0.88876,11.74502 6.75,32.04283 6.91049,23.93143 7.84425,30.35351 5.00315,34.40976 -2.63916,3.76792 -9.2034,5.93351 -13.36931,4.41064 z m 117.97504,-40.56999 c -9.40952,-3.20804 -14.40191,-7.55239 -16.81966,-14.63639 -1.7037,-4.99183 0.97907,-10.14158 6.16532,-11.83474 4.43189,-1.44688 5.73528,-0.95381 12.6793,4.79662 7.50099,6.21166 10.6232,7.42491 19.07304,7.41152 6.5123,-0.0103 8.49964,-0.46816 14.18844,-3.26875 9.93752,-4.89223 13.46798,-12.76284 9.06692,-20.21326 -3.14866,-5.33025 -7.12006,-6.21672 -29.03374,-6.48071 -25.68827,-0.30946 -33.31344,-2.19968 -40.1127,-9.94361 -3.93405,-4.48064 -6.62591,-13.32915 -5.75901,-18.93062 2.29145,-14.80602 15.0547,-25.91169 35.34335,-30.75324 19.04429,-4.54461 36.47025,-1.09142 42.2391,8.37026 3.77909,6.19819 1.44086,12.46667 -5.50534,14.75912 -4.35207,1.43631 -6.41051,0.81643 -14.45349,-4.35255 -6.20061,-3.98495 -6.76868,-4.14743 -14.5,-4.14743 -8.71107,0 -13.37441,1.60057 -17.9267,6.15286 -5.57752,5.57752 -4.9607,13.08496 1.38013,16.79776 3.22813,1.89019 5.17004,2.05222 25,2.08589 23.32522,0.0396 29.104,0.97896 37.10875,6.03214 10.40494,6.56835 13.87189,22.64242 7.56717,35.08419 -5.16052,10.18379 -18.069,18.53271 -35.48432,22.95046 -12.09754,3.0688 -21.45934,3.10612 -30.21656,0.12048 z m 115.02496,-32.60618 c -11.22595,-3.62261 -18.67005,-8.94697 -25.52172,-18.2543 -8.19317,-11.12964 -13.55246,-31.80614 -11.49883,-44.3633 3.20025,-19.56833 15.28359,-33.33386 35.02055,-39.89596 21.13161,-7.02579 39.44849,-3.34108 53.5642,10.77523 17.96871,17.96948 22.28141,50.41368 9.30538,70.00391 -4.13082,6.23641 -12.0859,13.19243 -19.18616,16.77663 -12.93014,6.52711 -30.38637,8.60334 -41.68342,4.95779 z m 25.30718,-17.17619 c 6.69234,-1.68965 13.07533,-6.97996 16.24956,-13.46786 3.79194,-7.75043 3.81485,-19.29044 0.0615,-30.97355 -7.02191,-21.85719 -22.82499,-31.25265 -39.87847,-23.70908 -9.43002,4.17135 -13.98954,11.63594 -14.55675,23.83153 -0.45641,9.81332 0.90683,16.94559 4.82077,25.22162 7.80086,16.49491 18.74782,22.77228 33.3034,19.09734 z"
       id="path4666"
       inkscape:connector-curvature="0" />
    <path
       style="fill:url(#linearGradient4704);fill-opacity:1;stroke:#000000;stroke-width:0.47770426;stroke-miterlimit:4;stroke-dasharray:none;stroke-opacity:1"
       d="m -260.77585,-58.86815 c -19.47002,-2.73344 -39.36099,-20.39281 -48.97085,-43.47672 -6.58508,-15.81807 -8.94143,-38.67764 -5.49426,-53.30134 3.49873,-14.84241 14.80338,-30.00617 28.57987,-38.33625 28.11908,-17.00248 65.67936,-12.37878 81.06176,9.97877 5.95431,8.6543 3.65614,18.2462 -4.74951,19.82311 -4.85769,0.91131 -6.75126,-0.0633 -15.0205,-7.73059 -10.06424,-9.3317 -17.45194,-12.84723 -26.99996,-12.84829 -10.92715,-0.001 -20.79424,3.82102 -28.07232,10.87442 -11.99261,11.6224 -14.97347,33.21923 -7.76142,56.23281 10.74261,34.27955 33.37208,47.46541 60.04146,34.9853 11.63689,-5.44556 18.42743,-15.14097 20.37659,-29.09332 1.74564,-12.49562 2.57673,-14.56692 6.61336,-16.48243 7.80962,-3.70591 14.6947,1.02304 15.93428,10.94429 2.3999,19.20815 -10.65826,40.73828 -30.5385,50.35152 -13.92949,6.73571 -31.76232,9.93718 -45,8.07872 z m 130.5,-38.28107 c -12.04079,-2.93526 -24.50889,-12.76122 -30.68829,-24.18509 -1.47856,-2.73341 -3.84106,-8.94781 -5.25,-13.80976 -7.71181,-26.61183 1.61471,-49.50265 24.6329,-60.45846 10.17116,-4.8411 16.74764,-6.42088 26.72958,-6.42088 18.48643,0 33.56896,9.25505 42.36684,25.99745 9.82759,18.70194 10.27365,40.34364 1.14137,55.37699 -11.01209,18.12786 -37.55345,28.71143 -58.9324,23.49975 z m 28.10106,-18.19789 c 6.58446,-3.47689 8.98492,-5.86635 11.91248,-11.85786 4.90486,-10.03822 3.9651,-24.52445 -2.48519,-38.30839 -4.45568,-9.52157 -8.23121,-13.72914 -15.55447,-17.33437 -5.50576,-2.71047 -7.23341,-3.09796 -12.20808,-2.73813 -10.46757,0.75716 -18.88177,6.34569 -23.41507,15.5518 -3.45106,7.00833 -3.24129,20.82249 0.47329,31.16796 6.54232,18.22103 15.25223,25.97437 29.27704,26.06165 5.76391,0.0359 8.02354,-0.44291 12,-2.54266 z m 74.54751,-8.94158 c -1.65268,-1.39064 -3.69568,-4.42814 -4.54,-6.75 -2.03568,-5.59808 -21.66717,-74.17461 -22.60392,-78.9598 -1.05045,-5.36597 -0.18178,-8.43493 3.19075,-11.27272 5.74925,-4.83768 14.2155,-1.8341 16.78622,5.95526 1.96982,5.96863 4.4864,5.54704 7.97683,-1.33634 3.44059,-6.78508 10.62662,-13.80777 17.47183,-17.07468 18.72986,-8.93895 37.68071,-3.6795 45.94134,12.75015 3.52342,7.00775 19.62884,63.85094 19.62859,69.27801 -4.3e-4,9.34327 -9.97449,14.19686 -17.00957,8.27723 -3.86343,-3.25086 -3.66695,-2.73934 -11.52358,-29.99972 -8.0689,-27.99688 -9.53437,-32.12298 -13.40965,-37.75551 -3.86017,-5.61056 -7.48475,-7.59691 -13.75775,-7.53955 -10.43746,0.0954 -18.04467,5.04971 -22.55572,14.68959 -2.71598,5.80393 -2.95961,7.11801 -2.43031,13.10855 0.32355,3.66188 2.69082,14.08297 5.26059,23.15797 9.58587,33.85193 9.64981,34.14235 8.43087,38.29782 -2.12536,7.24556 -11.11515,10.00478 -16.85652,5.17374 z M 94.3698,-162.27051 c -12.25874,-3.43918 -20.52677,-13.98448 -16.72647,-21.33346 2.89067,-5.58993 10.50779,-6.24225 14.97547,-1.28247 3.13818,3.48385 10.80551,7.91475 15.89807,9.18741 9.19145,2.29699 24.46227,-2.8635 29.22814,-9.87711 4.4511,-6.55037 2.67422,-15.41208 -3.78779,-18.89066 -2.65957,-1.43168 -7.04684,-1.85224 -24.73307,-2.37089 -26.66076,-0.78182 -32.2213,-2.04863 -39.07467,-8.90199 -8.99702,-8.99702 -9.16657,-22.91835 -0.40927,-33.60547 7.46887,-9.11478 19.94896,-14.98247 36.87308,-17.3364 18.36764,-2.5547 34.59401,4.71143 34.60712,15.49699 0.005,3.91667 -3.49876,7.30704 -8.36735,8.0971 -3.02861,0.49148 -4.64459,-0.01 -9.3934,-2.91427 -9.7749,-5.97838 -11.85566,-6.75852 -18.02613,-6.75852 -7.5404,0 -17.09879,4.46695 -20.16117,9.42199 -3.89801,6.30711 -2.17816,12.87305 4.26249,16.27306 2.6892,1.41962 6.7174,1.70603 25.6893,1.8265 24.29921,0.1543 28.38767,0.82215 36.04178,5.8874 2.11622,1.40045 5.11004,4.69384 6.65294,7.31866 2.5124,4.27413 2.80528,5.71203 2.80528,13.77239 0,10.01656 -0.99646,12.72312 -7.22066,19.61256 -11.67483,12.92264 -41.75383,21.25307 -59.13369,16.37718 z m 114.35435,-32.97786 c -12.2896,-3.33417 -23.98632,-13.40975 -29.87739,-25.73646 -11.51788,-24.10047 -9.15882,-47.23921 6.4027,-62.80073 10.71807,-10.71807 26.93152,-16.55596 43.65767,-15.71958 7.8633,0.3932 10.2345,0.95868 16.5,3.93493 13.2411,6.28981 22.3534,17.28685 27.30055,32.94724 6.60884,20.92049 2.93449,39.6047 -10.41338,52.95257 -6.51029,6.51029 -16.86196,12.17697 -26.31658,14.40614 -7.71242,1.81841 -20.5819,1.82591 -27.25357,0.0159 z m 30.09641,-18.01525 c 9.90083,-4.84402 14.40359,-13.11724 14.40359,-26.46467 0,-9.03086 -1.87246,-16.85535 -5.98163,-24.99557 -3.97535,-7.87513 -7.7543,-12.02162 -14.19952,-15.58058 -14.41617,-7.96041 -33.49551,0.5988 -37.95895,17.02881 -1.87479,6.90114 -0.5243,19.94842 3.00782,29.05898 4.95684,12.78543 12.0111,20.55358 21.2036,23.34943 5.17772,1.57477 13.49472,0.55399 19.52509,-2.3964 z"
       id="path4664"
       inkscape:connector-curvature="0" />
  </g>
  <text
     xml:space="preserve"
     style="font-style:normal;font-weight:normal;font-size:40px;line-height:125%;font-family:sans-serif;letter-spacing:0px;word-spacing:0px;fill:#000000;fill-opacity:1;stroke:url(#linearGradient4718);stroke-width:1px;stroke-linecap:butt;stroke-linejoin:miter;stroke-opacity:1"
     x="138.00052"
     y="87.899048"
     id="text4706"
     sodipodi:linespacing="125%"
     transform="matrix(0.93969262,0.34202014,-0.34202014,0.93969262,0,0)"><tspan
       sodipodi:role="line"
       id="tspan4708"
       x="138.00052"
       y="87.899048"
       style="font-style:normal;font-variant:normal;font-weight:normal;font-stretch:normal;font-size:35px;font-family:PMingLiU-ExtB;-inkscape-font-specification:PMingLiU-ExtB;fill:#ffffff;stroke:url(#linearGradient4718)">mag</tspan></text>
  <text
     xml:space="preserve"
     style="font-style:normal;font-weight:normal;font-size:40px;line-height:125%;font-family:sans-serif;letter-spacing:0px;word-spacing:0px;fill:#000000;fill-opacity:1;stroke:none;stroke-width:1px;stroke-linecap:butt;stroke-linejoin:miter;stroke-opacity:1"
     x="170.26912"
     y="88.739128"
     id="text4710"
     sodipodi:linespacing="125%"
     transform="matrix(0.93969262,0.34202014,-0.34202014,0.93969262,0,0)"><tspan
       sodipodi:role="line"
       id="tspan4712"
       x="170.26912"
       y="88.739128"
       style="font-style:normal;font-variant:normal;font-weight:normal;font-stretch:normal;font-family:PMingLiU-ExtB;-inkscape-font-specification:PMingLiU-ExtB;fill:#ffffff" /></text>
</svg>
